<svg width="1080" height="1080" viewBox="0 0 1080 1080" fill="none" xmlns="http://www.w3.org/2000/svg">
<rect width="1080" height="1080" rx="200" fill="#B1712D"/>
<path d="M283.359 457.545V521.466H121.641V457.545H283.359ZM152.962 398.739H241.172V624.058C241.172 627.467 241.758 630.344 242.93 632.688C244.102 634.925 245.913 636.629 248.363 637.801C250.813 638.866 253.956 639.399 257.791 639.399C260.455 639.399 263.544 639.08 267.06 638.44C270.682 637.801 273.345 637.268 275.05 636.842L287.834 698.845C283.892 700.017 278.246 701.455 270.895 703.16C263.651 704.864 255.021 705.983 245.007 706.516C224.766 707.581 207.773 705.504 194.031 700.283C180.288 694.957 169.954 686.594 163.029 675.195C156.104 663.795 152.749 649.52 152.962 632.368V398.739ZM319.355 703V457.545H405.008V504.207H407.565C412.039 486.949 419.124 474.325 428.818 466.335C438.619 458.344 450.072 454.349 463.176 454.349C467.011 454.349 470.793 454.669 474.521 455.308C478.357 455.841 482.032 456.64 485.548 457.705V532.972C481.18 531.48 475.8 530.362 469.408 529.616C463.016 528.87 457.529 528.497 452.948 528.497C444.319 528.497 436.542 530.468 429.617 534.41C422.799 538.245 417.419 543.678 413.477 550.71C409.536 557.634 407.565 565.784 407.565 575.159V703H319.355ZM602.682 564.932V703H514.472V457.545H598.208V504.207H600.764C606.091 488.653 615.466 476.455 628.889 467.613C642.419 458.771 658.186 454.349 676.191 454.349C693.556 454.349 708.63 458.344 721.414 466.335C734.305 474.218 744.266 485.085 751.297 498.934C758.435 512.783 761.95 528.604 761.844 546.395V703H673.634V564.932C673.74 552.787 670.651 543.252 664.365 536.327C658.186 529.403 649.557 525.94 638.477 525.94C631.233 525.94 624.894 527.538 619.461 530.734C614.134 533.824 610.033 538.298 607.156 544.158C604.28 549.911 602.789 556.835 602.682 564.932ZM951.768 457.545V521.466H790.049V457.545H951.768ZM821.37 398.739H909.58V624.058C909.58 627.467 910.166 630.344 911.338 632.688C912.51 634.925 914.321 636.629 916.771 637.801C919.221 638.866 922.364 639.399 926.199 639.399C928.863 639.399 931.952 639.08 935.468 638.44C939.09 637.801 941.753 637.268 943.458 636.842L956.242 698.845C952.3 700.017 946.654 701.455 939.303 703.16C932.059 704.864 923.43 705.983 913.415 706.516C893.174 707.581 876.182 705.504 862.439 700.283C848.696 694.957 838.362 686.594 831.437 675.195C824.513 663.795 821.157 649.52 821.37 632.368V398.739Z" fill="black"/>
</svg>
